<svg id="Layer_1" data-name="Layer 1" xmlns="http://www.w3.org/2000/svg" viewBox="0 0 36 36"><defs><style>.cls-1{fill:#089cff;}.cls-2{fill:#fff;fill-rule:evenodd;}</style></defs><title>icon-zalo</title><circle class="cls-1" cx="18" cy="18" r="18"/><path id="Combined-Shape" class="cls-2" d="M18.59,15.89v-.56h1.63V23h-.93a.71.71,0,0,1-.7-.7h0a4,4,0,1,1-2.35-7.21,5,5,0,0,1,2.35.84Zm-6.75-3v.24a1.85,1.85,0,0,1-.37,1.26l-.05.1c-.05.09-.24.23-.28.32L5.89,21.37h6v.94a.72.72,0,0,1-.7.7H3.46v-.42a1.81,1.81,0,0,1,.28-1l5.57-6.89H3.69V12.94S11.84,12.89,11.84,12.89ZM22.19,23a.57.57,0,0,1-.56-.56V12.89h1.73V23Zm6.33-7.91a4,4,0,1,1-4,4A4,4,0,0,1,28.52,15.1ZM16.24,21.47a2.35,2.35,0,1,0-2.34-2.35A2.35,2.35,0,0,0,16.24,21.47Zm12.28,0a2.35,2.35,0,1,0-2.35-2.35A2.35,2.35,0,0,0,28.52,21.47Z"/></svg>